<svg width="14px" height="18px" viewBox="0 0 14 18" version="1.1" xmlns="http://www.w3.org/2000/svg" xmlns:xlink="http://www.w3.org/1999/xlink">
    <title>Group</title>
    <g id="Page--1-Christophe" stroke="none" stroke-width="1" fill="none" fill-rule="evenodd">
        <g id="Agenda-1" transform="translate(-341, -302)" fill="#BF4040">
            <g id="Group" transform="translate(341, 302)">
                <path d="M4.025,0.54 C4.34810331,0.200854325 4.78840378,0.00676268614 5.25,0 L8.75,0 C9.71649831,0 10.5,0.80588745 10.5,1.8 L10.5,3.6 L13.125,3.6 C13.6082492,3.6 14,4.00294373 14,4.5 C14,4.99705627 13.6082492,5.4 13.125,5.4 L13.125,16.2 C13.125,17.1941125 12.3414983,18 11.375,18 L2.625,18 C1.65850169,18 0.875,17.1941125 0.875,16.2 L0.875,5.4 C0.391750844,5.4 0,4.99705627 0,4.5 C0,4.00294373 0.391750844,3.6 0.875,3.6 L3.5,3.6 L3.5,1.8 C3.5,1.35 3.675,0.9 4.025,0.54 M5.25,3.6 L8.75,3.6 L8.75,1.8 L5.25,1.8 L5.25,3.6 Z M6.125,7.2 C6.125,6.70294373 5.73324916,6.3 5.25,6.3 C4.76675084,6.3 4.375,6.70294373 4.375,7.2 L4.375,14.4 C4.375,14.8970563 4.76675084,15.3 5.25,15.3 C5.73324916,15.3 6.125,14.8970563 6.125,14.4 L6.125,7.2 Z M9.625,7.2 C9.625,6.70294373 9.23324916,6.3 8.75,6.3 C8.26675084,6.3 7.875,6.70294373 7.875,7.2 L7.875,14.4 C7.875,14.8970563 8.26675084,15.3 8.75,15.3 C9.23324916,15.3 9.625,14.8970563 9.625,14.4 L9.625,7.2 Z" id="Shape"></path>
            </g>
        </g>
    </g>
</svg>
