<svg width="20px" height="20px" viewBox="0 0 20 20" version="1.1" xmlns="http://www.w3.org/2000/svg" xmlns:xlink="http://www.w3.org/1999/xlink">
    <title>icon__surface--change</title>
    <g id="Brouillons" stroke="none" stroke-width="1" fill="none" fill-rule="evenodd">
        <g id="Agenda-1" transform="translate(-286, -291)">
            <g id="icon__surface--change" transform="translate(287, 292)">
                <g id="icon--arrow-down-copy" transform="translate(15.4097, 12.9946) scale(-1, 1) rotate(-360) translate(-15.4097, -12.9946)translate(12.8597, 7.9946)" fill="#FFFFFF" fill-rule="nonzero" stroke="#FFFFFF" stroke-width="0.4">
                    <path d="M3.45494505,8.47683398 C3.40659341,8.46138996 3.36043956,8.43436293 3.31648352,8.3957529 L0.718681319,6.11389961 C0.63956044,6.04440154 0.6,5.95945946 0.6,5.85907336 C0.6,5.75868726 0.63956044,5.67374517 0.718681319,5.6042471 C0.797802198,5.53474903 0.89010989,5.5 0.995604396,5.5 C1.1010989,5.5 1.19340659,5.53474903 1.27252747,5.6042471 L3.59340659,7.64285714 L5.91428571,5.6042471 C5.99340659,5.53474903 6.08791209,5.5 6.1978022,5.5 C6.30769231,5.5 6.4021978,5.53474903 6.48131868,5.6042471 C6.56043956,5.67374517 6.6,5.75675676 6.6,5.85328185 C6.6,5.94980695 6.56043956,6.03281853 6.48131868,6.1023166 L3.87032967,8.3957529 C3.82637363,8.43436293 3.78241758,8.46138996 3.73846154,8.47683398 C3.69450549,8.49227799 3.64615385,8.5 3.59340659,8.5 C3.54945055,8.5 3.5032967,8.49227799 3.45494505,8.47683398 Z" id="Path" transform="translate(3.6, 7) rotate(-270) translate(-3.6, -7)"></path>
                    <path d="M1.35494505,4.47683398 C1.30659341,4.46138996 1.26043956,4.43436293 1.21648352,4.3957529 L-1.38131868,2.11389961 C-1.46043956,2.04440154 -1.5,1.95945946 -1.5,1.85907336 C-1.5,1.75868726 -1.46043956,1.67374517 -1.38131868,1.6042471 C-1.3021978,1.53474903 -1.20989011,1.5 -1.1043956,1.5 C-0.998901099,1.5 -0.906593407,1.53474903 -0.827472527,1.6042471 L1.49340659,3.64285714 L3.81428571,1.6042471 C3.89340659,1.53474903 3.98791209,1.5 4.0978022,1.5 C4.20769231,1.5 4.3021978,1.53474903 4.38131868,1.6042471 C4.46043956,1.67374517 4.5,1.75675676 4.5,1.85328185 C4.5,1.94980695 4.46043956,2.03281853 4.38131868,2.1023166 L1.77032967,4.3957529 C1.72637363,4.43436293 1.68241758,4.46138996 1.63846154,4.47683398 C1.59450549,4.49227799 1.54615385,4.5 1.49340659,4.5 C1.44945055,4.5 1.4032967,4.49227799 1.35494505,4.47683398 Z" id="Path-Copy-7" transform="translate(1.5, 3) rotate(-90) translate(-1.5, -3)"></path>
                </g>
                <path d="M11.1666693,13.9946311 L0.160747392,13.9946311 C0.105518916,13.9946311 0.0607473905,13.9498596 0.0607473905,13.8946311 C0.0607473905,13.8793047 0.0642702636,13.8641834 0.0710439136,13.8504351 L6.80798852,0.176632303 C6.8323973,0.12709044 6.89234614,0.106716047 6.941888,0.131124823 C6.96091291,0.140498203 6.97646502,0.155677563 6.9862971,0.174469519 L9.1303076,4.27229629 L9.1303076,4.27229629" id="Path-7" stroke="#FCFCFC" stroke-width="1.4" stroke-linecap="round"></path>
                <path d="M8.74366474,10.3373349 L11.8382085,4.43669341 C11.8638592,4.38778301 11.9243029,4.36892726 11.9732133,4.39457793 C11.9905328,4.40366101 12.0048088,4.41762319 12.0142746,4.43473654 L13.983332,7.99463109 L13.983332,7.99463109" id="Path-8" stroke="#FCFCFC" stroke-width="1.4" stroke-linecap="round"></path>
            </g>
        </g>
    </g>
</svg>
