<svg width="16px" height="20px" viewBox="0 0 16 20" version="1.1" xmlns="http://www.w3.org/2000/svg" xmlns:xlink="http://www.w3.org/1999/xlink">
    <title>Group</title>
    <g id="Version-ok" stroke="none" stroke-width="1" fill="none" fill-rule="evenodd">
        <g id="Home" transform="translate(-336, -310)" fill="#FFFFFF" fill-rule="nonzero">
            <g id="Group-15" transform="translate(20, 294)">
                <g id="Group-14" transform="translate(308, 10)">
                    <g id="Group" transform="translate(8, 6)">
                        <path id="path" d="M1.40681786,6.06688955 L14.5371178,6.06688955 L14.5371178,3.70549707 C14.5371178,3.63276618 14.5070276,3.56617492 14.446847,3.50572327 C14.3868228,3.4451142 14.3207024,3.41480966 14.2484857,3.41480966 L1.69544999,3.41480966 C1.62323334,3.41480966 1.5571129,3.4451142 1.49708867,3.50572327 C1.43690813,3.56617492 1.40681786,3.63276618 1.40681786,3.70549707 L1.40681786,6.06688955 Z M1.44509437,6.06688955 L1.44509437,3.41480966 L1.44509437,6.06688955 Z M1.69544999,18.055443 C1.22166499,18.055443 0.820643749,17.8901455 0.49238625,17.5595506 C0.16412875,17.2289556 0,16.8250788 0,16.3479201 L0,3.70549707 C0,3.22833837 0.16412875,2.82446154 0.49238625,2.49386659 C0.820643749,2.16327165 1.22166499,1.99797417 1.69544999,1.99797417 L2.99394287,1.99797417 L2.99394287,0.726364326 C2.99394287,0.519348919 3.06279879,0.346494989 3.20051062,0.207802538 C3.33822246,0.0692675126 3.50985424,0 3.71540596,0 C3.92111399,0 4.09274577,0.0692675126 4.23030129,0.207802538 C4.36801313,0.346494989 4.43686905,0.519348919 4.43686905,0.726364326 L4.43686905,1.99797417 L11.543175,1.99797417 L11.543175,0.708417743 C11.543175,0.50738453 11.6104678,0.339017246 11.7450533,0.203315892 C11.8797952,0.0677719641 12.0469721,0 12.2465839,0 C12.4461957,0 12.6132944,0.0677719641 12.74788,0.203315892 C12.8826219,0.339017246 12.9499928,0.50738453 12.9499928,0.708417743 L12.9499928,1.99797417 L14.2484857,1.99797417 C14.7222707,1.99797417 15.123292,2.16327165 15.4515495,2.49386659 C15.779807,2.82446154 15.9439357,3.22833837 15.9439357,3.70549707 L15.9439357,8.15766645 C15.9439357,8.35869966 15.8765648,8.52698823 15.7418229,8.66253216 C15.6072373,8.79823351 15.4401386,8.86608419 15.2405268,8.86608419 C15.040915,8.86608419 14.8738163,8.79823351 14.7392307,8.66253216 C14.6044888,8.52698823 14.5371178,8.35869966 14.5371178,8.15766645 L14.5371178,7.48372503 L1.40681786,7.48372503 L1.40681786,16.3479201 C1.40681786,16.420651 1.43690813,16.4872423 1.49708867,16.5476939 C1.5571129,16.608303 1.62323334,16.6386075 1.69544999,16.6386075 L7.43268767,16.6386075 C7.6322995,16.6386075 7.79947635,16.7064582 7.93421824,16.8421596 C8.06880381,16.9777035 8.1360966,17.1459921 8.1360966,17.3470253 C8.1360966,17.5480585 8.06880381,17.7163471 7.93421824,17.851891 C7.79947635,17.9875923 7.6322995,18.055443 7.43268767,18.055443 L1.69544999,18.055443 Z" id="Shape"></path>
                        <g id="icon--arrow-down-copy" transform="translate(11.75, 14.5) scale(-1, 1) rotate(-360) translate(-11.75, -14.5)translate(9.2, 9.5)" stroke="#4640F9" stroke-width="0.4">
                            <path d="M3.45494505,8.47683398 C3.40659341,8.46138996 3.36043956,8.43436293 3.31648352,8.3957529 L0.718681319,6.11389961 C0.63956044,6.04440154 0.6,5.95945946 0.6,5.85907336 C0.6,5.75868726 0.63956044,5.67374517 0.718681319,5.6042471 C0.797802198,5.53474903 0.89010989,5.5 0.995604396,5.5 C1.1010989,5.5 1.19340659,5.53474903 1.27252747,5.6042471 L3.59340659,7.64285714 L5.91428571,5.6042471 C5.99340659,5.53474903 6.08791209,5.5 6.1978022,5.5 C6.30769231,5.5 6.4021978,5.53474903 6.48131868,5.6042471 C6.56043956,5.67374517 6.6,5.75675676 6.6,5.85328185 C6.6,5.94980695 6.56043956,6.03281853 6.48131868,6.1023166 L3.87032967,8.3957529 C3.82637363,8.43436293 3.78241758,8.46138996 3.73846154,8.47683398 C3.69450549,8.49227799 3.64615385,8.5 3.59340659,8.5 C3.54945055,8.5 3.5032967,8.49227799 3.45494505,8.47683398 Z" id="Path" transform="translate(3.6, 7) rotate(-270) translate(-3.6, -7)"></path>
                            <path d="M1.35494505,4.47683398 C1.30659341,4.46138996 1.26043956,4.43436293 1.21648352,4.3957529 L-1.38131868,2.11389961 C-1.46043956,2.04440154 -1.5,1.95945946 -1.5,1.85907336 C-1.5,1.75868726 -1.46043956,1.67374517 -1.38131868,1.6042471 C-1.3021978,1.53474903 -1.20989011,1.5 -1.1043956,1.5 C-0.998901099,1.5 -0.906593407,1.53474903 -0.827472527,1.6042471 L1.49340659,3.64285714 L3.81428571,1.6042471 C3.89340659,1.53474903 3.98791209,1.5 4.0978022,1.5 C4.20769231,1.5 4.3021978,1.53474903 4.38131868,1.6042471 C4.46043956,1.67374517 4.5,1.75675676 4.5,1.85328185 C4.5,1.94980695 4.46043956,2.03281853 4.38131868,2.1023166 L1.77032967,4.3957529 C1.72637363,4.43436293 1.68241758,4.46138996 1.63846154,4.47683398 C1.59450549,4.49227799 1.54615385,4.5 1.49340659,4.5 C1.44945055,4.5 1.4032967,4.49227799 1.35494505,4.47683398 Z" id="Path-Copy-7" transform="translate(1.5, 3) rotate(-90) translate(-1.5, -3)"></path>
                        </g>
                    </g>
                </g>
            </g>
        </g>
    </g>
</svg>
