<svg width="16px" height="15px" viewBox="0 0 16 15" version="1.1" xmlns="http://www.w3.org/2000/svg" xmlns:xlink="http://www.w3.org/1999/xlink">
    <g id="Page--1-Christophe" stroke="none" stroke-width="1" fill="none" fill-rule="evenodd">
        <g id="Subscription" transform="translate(-314, -728)" fill="#FFBF34" fill-rule="nonzero">
            <g id="Group-6" transform="translate(30, 465)">
                <g id="Group-11" transform="translate(15, 247)">
                    <g id="Group-16" transform="translate(255, 14)">
                        <g id="icon--star" transform="translate(14, 2)">
                            <path d="M8,12.4312049 L3.82190132,14.899813 C3.70209921,14.9732835 3.57480947,15.0063452 3.44003209,14.9989981 C3.30525471,14.9916511 3.1854526,14.9512423 3.08062575,14.8777718 C2.9757989,14.8043014 2.89717877,14.7087897 2.84476534,14.591237 C2.79235192,14.4736842 2.78112047,14.3414373 2.811071,14.1944964 L3.91175291,9.52177398 L0.227837946,6.36989046 C0.108035834,6.26703179 0.0369033293,6.15315255 0.0144404332,6.02825274 C-0.0080224629,5.90335293 -0.00427864688,5.78212664 0.0256718813,5.66457387 C0.0556224094,5.54702111 0.123011098,5.44783596 0.227837946,5.36701843 C0.332664795,5.28620091 0.459954539,5.2384451 0.60970718,5.223751 L5.48415564,4.80496928 L7.37103891,0.396740582 C7.43093997,0.264493722 7.52079155,0.165308576 7.64059366,0.0991851456 C7.76039577,0.0330617152 7.88019789,0 8,0 C8.11980211,0 8.23960423,0.0330617152 8.35940634,0.0991851456 C8.47920845,0.165308576 8.56906003,0.264493722 8.62896109,0.396740582 L10.5158444,4.80496928 L15.3902928,5.223751 C15.5400455,5.2384451 15.6673352,5.28620091 15.7721621,5.36701843 C15.8769889,5.44783596 15.9443776,5.54702111 15.9743281,5.66457387 C16.0042786,5.78212664 16.0080225,5.90335293 15.9855596,6.02825274 C15.9630967,6.15315255 15.8919642,6.26703179 15.7721621,6.36989046 L12.0882471,9.52177398 L13.188929,14.1944964 C13.2188795,14.3414373 13.2076481,14.4736842 13.1552347,14.591237 C13.1028212,14.7087897 13.0242011,14.8043014 12.9193742,14.8777718 C12.8145474,14.9512423 12.6947453,14.9916511 12.5599679,14.9989981 C12.4251905,15.0063452 12.2979008,14.9732835 12.1780987,14.899813 L8,12.4312049 Z" id="Shape"></path>
                        </g>
                    </g>
                </g>
            </g>
        </g>
    </g>
</svg>
